<?xml version="1.0" encoding="UTF-8" standalone="no"?>
<!-- Created with Inkscape (http://www.inkscape.org/) -->

<svg
   xmlns:dc="http://purl.org/dc/elements/1.1/"
   xmlns:cc="http://creativecommons.org/ns#"
   xmlns:rdf="http://www.w3.org/1999/02/22-rdf-syntax-ns#"
   xmlns:svg="http://www.w3.org/2000/svg"
   xmlns="http://www.w3.org/2000/svg"
   xmlns:sodipodi="http://sodipodi.sourceforge.net/DTD/sodipodi-0.dtd"
   xmlns:inkscape="http://www.inkscape.org/namespaces/inkscape"
   version="1.1"
   id="svg3815"
   width="268"
   height="120"
   viewBox="0 0 268 120"
   sodipodi:docname="nes-controller.svg"
   inkscape:version="0.92.2 2405546, 2018-03-11"
   inkscape:export-filename="/home/alan/source/nintender/app/content/nes.png"
   inkscape:export-xdpi="96"
   inkscape:export-ydpi="96">
  <metadata
     id="metadata3821">
    <rdf:RDF>
      <cc:Work
         rdf:about="">
        <dc:format>image/svg+xml</dc:format>
        <dc:type
           rdf:resource="http://purl.org/dc/dcmitype/StillImage" />
        <dc:title></dc:title>
      </cc:Work>
    </rdf:RDF>
  </metadata>
  <defs
     id="defs3819" />
  <sodipodi:namedview
     pagecolor="#ffffff"
     bordercolor="#666666"
     borderopacity="1"
     objecttolerance="10"
     gridtolerance="10"
     guidetolerance="10"
     inkscape:pageopacity="0"
     inkscape:pageshadow="2"
     inkscape:window-width="1918"
     inkscape:window-height="1060"
     id="namedview3817"
     showgrid="false"
     inkscape:zoom="4"
     inkscape:cx="117.98262"
     inkscape:cy="66.031889"
     inkscape:window-x="0"
     inkscape:window-y="18"
     inkscape:window-maximized="0"
     inkscape:current-layer="svg3815"
     inkscape:snap-page="true"
     inkscape:snap-bbox="true"
     inkscape:bbox-paths="true"
     inkscape:bbox-nodes="true" />
  <rect
     id="rect3941"
     width="268"
     height="116.04124"
     x="0"
     y="1.9793816"
     ry="4.097661"
     style="fill:#d1d2d4;fill-opacity:1;stroke-width:1"
     rx="0" />
  <rect
     style="fill:#414041;fill-opacity:1;stroke-width:1.00824106"
     id="rect3945"
     width="253.21043"
     height="91.175247"
     x="7.3947802"
     y="19.971182"
     ry="3.5"
     rx="0" />
  <path
     style="fill:#a7a9ac;fill-opacity:1;stroke-width:1.00824106"
     d="m 85.680554,19.971635 v 9.5534 c 0,1.739734 1.400832,3.140571 3.140572,3.140571 h 68.967524 c 1.73973,0 3.14057,-1.400837 3.14057,-3.140571 v -9.5534 z m 3.140572,16.848483 c -1.73974,0 -3.140572,1.400838 -3.140572,3.140572 v 5.745212 c 0,1.739733 1.400832,3.140571 3.140572,3.140571 h 68.967524 c 1.73973,0 3.14057,-1.400838 3.14057,-3.140571 V 39.96069 c 0,-1.739734 -1.40084,-3.140572 -3.14057,-3.140572 z m 0,16.180867 c -1.73974,0 -3.140572,1.400838 -3.140572,3.140571 v 5.745213 c 0,1.739733 1.400832,3.140571 3.140572,3.140571 h 68.967524 c 1.73973,0 3.14057,-1.400838 3.14057,-3.140571 v -5.745213 c 0,-1.739733 -1.40084,-3.140571 -3.14057,-3.140571 z m 0,51.239415 c -1.73974,0 -3.140572,1.40084 -3.140572,3.14057 v 3.76606 h 75.248666 v -3.76606 c 0,-1.73973 -1.40084,-3.14057 -3.14057,-3.14057 z"
     id="rect4777"
     inkscape:connector-curvature="0" />
  <path
     style="fill:#343535;fill-opacity:1;stroke:#e2e2e2;stroke-width:4;stroke-linecap:round;stroke-linejoin:round;stroke-miterlimit:4;stroke-dasharray:none;stroke-opacity:1;paint-order:stroke markers fill"
     d="m 36.746862,44.306142 c -0.558233,0 -1.007353,0.450436 -1.007353,1.008669 V 60.404049 H 20.648955 c -0.558233,0 -1.007359,0.44912 -1.007359,1.007353 v 18.360172 c 6e-6,0.558237 0.449126,1.00735 1.007359,1.00735 h 15.090554 v 15.09057 c 0,0.558227 0.44912,1.007351 1.007353,1.007351 h 18.358859 c 0.558226,0 1.008668,-0.449124 1.008668,-1.007351 v -15.09057 h 15.089238 c 0.558233,0 1.007353,-0.449113 1.007353,-1.00735 V 61.411402 c 0,-0.558233 -0.44912,-1.007353 -1.007353,-1.007353 H 56.114389 V 45.314811 c 0,-0.558233 -0.450442,-1.008669 -1.008668,-1.008669 z"
     id="rect4795"
     inkscape:connector-curvature="0" />
  <rect
     rx="4.469635"
     ry="4.469635"
     y="68.313736"
     x="85.680695"
     height="28.497612"
     width="75.248444"
     id="rect18"
     style="fill:#e7e7e8;fill-opacity:1;stroke:none;stroke-width:3.96101975;stroke-linecap:round;stroke-linejoin:round;stroke-miterlimit:4;stroke-dasharray:none;stroke-opacity:1;paint-order:stroke markers fill" />
  <rect
     style="fill:#e7e7e8;fill-opacity:1;stroke:none;stroke-width:3.96101975;stroke-linecap:round;stroke-linejoin:round;stroke-miterlimit:4;stroke-dasharray:none;stroke-opacity:1;paint-order:stroke markers fill"
     id="rect4804"
     width="29.189917"
     height="28.960073"
     x="175.01184"
     y="68.313736"
     ry="4.469635"
     rx="0" />
  <rect
     ry="4.469635"
     y="68.313736"
     x="208.722"
     height="28.960073"
     width="29.189917"
     id="rect4806"
     style="fill:#e7e7e8;fill-opacity:1;stroke:none;stroke-width:3.96101975;stroke-linecap:round;stroke-linejoin:round;stroke-miterlimit:4;stroke-dasharray:none;stroke-opacity:1;paint-order:stroke markers fill"
     rx="0" />
  <circle
     style="fill:#ea412c;fill-opacity:1;stroke:none;stroke-width:4;stroke-linecap:round;stroke-linejoin:round;stroke-miterlimit:4;stroke-dasharray:none;stroke-opacity:1;paint-order:stroke markers fill"
     id="path4812"
     cx="189.6068"
     cy="82.727539"
     r="11.756809" />
  <circle
     r="11.756809"
     cy="82.727539"
     cx="223.31693"
     id="circle4814"
     style="fill:#ea412c;fill-opacity:1;stroke:none;stroke-width:4;stroke-linecap:round;stroke-linejoin:round;stroke-miterlimit:4;stroke-dasharray:none;stroke-opacity:1;paint-order:stroke markers fill" />
  <rect
     style="fill:none;fill-opacity:1;stroke:#a7a9ac;stroke-width:1;stroke-linecap:square;stroke-linejoin:miter;stroke-miterlimit:4;stroke-dasharray:none;stroke-opacity:1;paint-order:stroke markers fill"
     id="rect4816"
     width="67.573509"
     height="19.881321"
     x="89.518166"
     y="72.853096"
     ry="0" />
  <rect
     style="fill:#231f20;fill-opacity:1;stroke:none;stroke-width:1;stroke-linecap:square;stroke-linejoin:miter;stroke-miterlimit:4;stroke-dasharray:none;stroke-opacity:1;paint-order:stroke markers fill"
     id="rect4818"
     width="22.428148"
     height="7.5573049"
     x="95.235786"
     y="79.015114"
     ry="5.6046224"
     rx="5.6046224" />
  <rect
     ry="5.6046224"
     y="79.015114"
     x="128.94594"
     height="7.5573049"
     width="22.428148"
     id="rect4820"
     style="fill:#231f20;fill-opacity:1;stroke:none;stroke-width:1;stroke-linecap:square;stroke-linejoin:miter;stroke-miterlimit:4;stroke-dasharray:none;stroke-opacity:1;paint-order:stroke markers fill"
     rx="5.6046224" />
</svg>
